<?xml version="1.0" encoding="UTF-8" standalone="no"?>
<!-- Created with Inkscape (http://www.inkscape.org/) -->

<svg
   xmlns:dc="http://purl.org/dc/elements/1.1/"
   xmlns:cc="http://creativecommons.org/ns#"
   xmlns:rdf="http://www.w3.org/1999/02/22-rdf-syntax-ns#"
   xmlns:svg="http://www.w3.org/2000/svg"
   xmlns="http://www.w3.org/2000/svg"
   xmlns:sodipodi="http://sodipodi.sourceforge.net/DTD/sodipodi-0.dtd"
   xmlns:inkscape="http://www.inkscape.org/namespaces/inkscape"
   width="47.153465"
   height="64.845169"
   id="svg5318"
   version="1.1"
   inkscape:version="0.48.5 r10040"
   sodipodi:docname="New document 4">
  <defs
     id="defs5320" />
  <sodipodi:namedview
     id="base"
     pagecolor="#ffffff"
     bordercolor="#666666"
     borderopacity="1.0"
     inkscape:pageopacity="0.0"
     inkscape:pageshadow="2"
     inkscape:zoom="0.35"
     inkscape:cx="-44.284036"
     inkscape:cy="86.70174"
     inkscape:document-units="px"
     inkscape:current-layer="layer1"
     showgrid="false"
     fit-margin-top="0"
     fit-margin-left="0"
     fit-margin-right="0"
     fit-margin-bottom="0"
     inkscape:window-width="1366"
     inkscape:window-height="766"
     inkscape:window-x="0"
     inkscape:window-y="0"
     inkscape:window-maximized="0" />
  <metadata
     id="metadata5323">
    <rdf:RDF>
      <cc:Work
         rdf:about="">
        <dc:format>image/svg+xml</dc:format>
        <dc:type
           rdf:resource="http://purl.org/dc/dcmitype/StillImage" />
        <dc:title></dc:title>
      </cc:Work>
    </rdf:RDF>
  </metadata>
  <g
     inkscape:label="Layer 1"
     inkscape:groupmode="layer"
     id="layer1"
     transform="translate(-419.28404,-554.21875)">
    <path
       inkscape:connector-curvature="0"
       id="path162"
       d="m 458.56214,554.56766 c 1.71517,-0.39291 3.48908,-0.24562 5.2344,-0.27088 -0.63254,5.22909 1.25886,10.01545 2.5777,14.92964 -1.84704,7.74389 -1.9528,16.23543 -6.5546,23.05876 -1.81721,3.48734 -4.48857,6.40745 -6.61379,9.67744 -0.26852,4.06897 -0.0749,8.15333 0.0172,12.22757 -3.21301,1.85929 -6.23039,4.71793 -10.16741,4.69127 -5.20326,0.41246 -10.45747,-0.17269 -15.30462,-2.16872 -0.84307,-5.2661 0.62037,-11.23724 -2.72774,-15.81768 -3.98399,-6.46381 -5.10759,-14.18533 -5.62383,-21.62683 -0.46566,-4.76044 1.89079,-9.19043 4.17936,-13.1835 1.60597,-1.14063 3.71136,-1.08669 5.5365,-1.68125 1.59948,-1.06258 2.74181,-2.6544 4.09939,-3.98735 1.5859,0.21646 3.16959,0.45322 4.75105,0.71026 1.97392,-1.51552 4.22951,-3.56587 6.91048,-2.39908 3.32155,1.52345 6.86062,0.59526 10.33056,0.34677 1.06974,-1.53641 2.07073,-3.13505 3.35539,-4.50642 z"
       style="fill:none;stroke:#171717;stroke-width:0.125;stroke-linecap:butt;stroke-linejoin:miter;stroke-miterlimit:10" />
    <path
       inkscape:connector-curvature="0"
       id="path164"
       d="m 458.56214,554.56766 c 1.71517,-0.39291 3.48908,-0.24562 5.2344,-0.27088 -0.63254,5.22909 1.25886,10.01545 2.5777,14.92964 -1.84704,7.74389 -1.9528,16.23543 -6.5546,23.05876 -1.81721,3.48734 -4.48857,6.40745 -6.61379,9.67744 -0.26852,4.06897 -0.0749,8.15333 0.0172,12.22757 -3.21301,1.85929 -6.23039,4.71793 -10.16741,4.69127 -5.20326,0.41246 -10.45747,-0.17269 -15.30462,-2.16872 -0.84307,-5.2661 0.62037,-11.23724 -2.72774,-15.81768 -3.98399,-6.46381 -5.10759,-14.18533 -5.62383,-21.62683 -0.46566,-4.76044 1.89079,-9.19043 4.17936,-13.1835 1.60597,-1.14063 3.71136,-1.08669 5.5365,-1.68125 1.59948,-1.06258 2.74181,-2.6544 4.09939,-3.98735 1.5859,0.21646 3.16959,0.45322 4.75105,0.71026 1.97392,-1.51552 4.22951,-3.56587 6.91048,-2.39908 3.32155,1.52345 6.86062,0.59526 10.33056,0.34677 1.06974,-1.53641 2.07073,-3.13505 3.35539,-4.50642 z"
       style="fill:#171717;fill-rule:nonzero;stroke:none" />
    <path
       inkscape:connector-curvature="0"
       id="path174"
       d="m 458.45026,568.92958 c -2.73466,-4.4558 -2.31928,-11.2583 2.69945,-13.90932 -0.47123,3.23473 0.43413,6.20909 2.07428,8.96662 1.42248,8.068 -0.50963,16.29676 -3.52698,23.84817 -0.93914,-3.32598 -2.85011,-6.1825 -5.21867,-8.65275 1.36861,-3.41308 1.25862,-7.49552 3.97192,-10.25272 z"
       style="fill:none;stroke:#ffffff;stroke-width:0.125;stroke-linecap:butt;stroke-linejoin:miter;stroke-miterlimit:10" />
    <path
       inkscape:connector-curvature="0"
       id="path176"
       d="m 458.45026,568.92958 c -2.73466,-4.4558 -2.31928,-11.2583 2.69945,-13.90932 -0.47123,3.23473 0.43413,6.20909 2.07428,8.96662 1.42248,8.068 -0.50963,16.29676 -3.52698,23.84817 -0.93914,-3.32598 -2.85011,-6.1825 -5.21867,-8.65275 1.36861,-3.41308 1.25862,-7.49552 3.97192,-10.25272 z"
       style="fill:#ffffff;fill-rule:nonzero;stroke:none" />
    <path
       inkscape:connector-curvature="0"
       id="path222"
       d="m 439.38976,563.30845 c 0.77255,-3.95269 7.3352,-4.65038 8.127,-0.31763 -0.31538,3.08205 -1.0544,6.09999 -1.57169,9.15194 -1.61352,0.9299 -3.23633,1.84995 -4.74981,2.93935 1.60017,-0.0841 3.19843,-0.20384 4.79478,-0.35923 -0.39688,2.14003 -0.84539,4.2705 -1.29608,6.40148 -1.3952,0.20932 -2.79266,0.39734 -4.19239,0.56405 0.80942,-1.74004 2.657,-2.30792 4.23918,-3.11676 -1.53669,-1.47528 -3.45831,-0.6119 -5.20111,-0.11673 0.20788,-5.05197 -0.59706,-10.10124 -0.14988,-15.14646 z"
       style="fill:none;stroke:#ffffff;stroke-width:0.125;stroke-linecap:butt;stroke-linejoin:miter;stroke-miterlimit:10" />
    <path
       inkscape:connector-curvature="0"
       id="path224"
       d="m 439.38976,563.30845 c 0.77255,-3.95269 7.3352,-4.65038 8.127,-0.31763 -0.31538,3.08205 -1.0544,6.09999 -1.57169,9.15194 -1.61352,0.9299 -3.23633,1.84995 -4.74981,2.93935 1.60017,-0.0841 3.19843,-0.20384 4.79478,-0.35923 -0.39688,2.14003 -0.84539,4.2705 -1.29608,6.40148 -1.3952,0.20932 -2.79266,0.39734 -4.19239,0.56405 0.80942,-1.74004 2.657,-2.30792 4.23918,-3.11676 -1.53669,-1.47528 -3.45831,-0.6119 -5.20111,-0.11673 0.20788,-5.05197 -0.59706,-10.10124 -0.14988,-15.14646 z"
       style="fill:#ffffff;fill-rule:nonzero;stroke:none" />
    <path
       inkscape:connector-curvature="0"
       id="path226"
       d="m 450.78094,560.89594 c 1.27596,0.0776 2.55297,0.15314 3.83104,0.22661 0.5144,2.24247 1.13345,4.46654 1.4736,6.74717 -1.04353,3.51814 -2.12995,7.02597 -3.12589,10.56076 -2.18781,0.0252 -4.58794,0.9104 -6.54766,-0.52231 1.36642,-0.24101 4.09929,-0.723 5.46571,-0.96401 -1.35595,-1.30155 -2.7889,-2.51121 -4.19653,-3.75063 1.84451,-0.0311 3.70589,-0.0208 5.51804,-0.42501 -1.78694,-0.37312 -3.58135,-0.69994 -5.38322,-0.98047 0.60638,-3.72256 1.54405,-7.39439 2.96491,-10.89211 z"
       style="fill:none;stroke:#ffffff;stroke-width:0.125;stroke-linecap:butt;stroke-linejoin:miter;stroke-miterlimit:10" />
    <path
       inkscape:connector-curvature="0"
       id="path228"
       d="m 450.78094,560.89594 c 1.27596,0.0776 2.55297,0.15314 3.83104,0.22661 0.5144,2.24247 1.13345,4.46654 1.4736,6.74717 -1.04353,3.51814 -2.12995,7.02597 -3.12589,10.56076 -2.18781,0.0252 -4.58794,0.9104 -6.54766,-0.52231 1.36642,-0.24101 4.09929,-0.723 5.46571,-0.96401 -1.35595,-1.30155 -2.7889,-2.51121 -4.19653,-3.75063 1.84451,-0.0311 3.70589,-0.0208 5.51804,-0.42501 -1.78694,-0.37312 -3.58135,-0.69994 -5.38322,-0.98047 0.60638,-3.72256 1.54405,-7.39439 2.96491,-10.89211 z"
       style="fill:#ffffff;fill-rule:nonzero;stroke:none" />
    <path
       inkscape:connector-curvature="0"
       id="path238"
       d="m 430.68908,565.7634 c 1.56393,-2.4527 3.92428,-4.33903 6.85408,-2.69548 -0.13515,4.21995 2.39584,10.32117 -2.84071,12.33842 3.13038,-0.54462 3.7665,1.37787 3.47322,4.03036 -2.22843,-0.27305 -4.38343,-0.86574 -6.3459,-1.96979 -1.06098,0.48334 -1.92392,2.72934 -3.25546,2.08612 -2.34184,-3.77552 -5.36509,-7.88067 -4.09542,-12.58518 1.50061,-0.0734 3.0024,-0.12808 4.50541,-0.16409 1.05838,2.20236 2.02556,4.45038 2.81185,6.76687 -1.30888,0.52332 -2.61391,1.0557 -3.91507,1.59712 2.07524,0.57947 4.13491,1.2147 6.13917,2.01512 -0.56463,-3.95035 -1.63124,-7.80615 -3.33117,-11.41947 z"
       style="fill:none;stroke:#ffffff;stroke-width:0.125;stroke-linecap:butt;stroke-linejoin:miter;stroke-miterlimit:10" />
    <path
       inkscape:connector-curvature="0"
       id="path240"
       d="m 430.68908,565.7634 c 1.56393,-2.4527 3.92428,-4.33903 6.85408,-2.69548 -0.13515,4.21995 2.39584,10.32117 -2.84071,12.33842 3.13038,-0.54462 3.7665,1.37787 3.47322,4.03036 -2.22843,-0.27305 -4.38343,-0.86574 -6.3459,-1.96979 -1.06098,0.48334 -1.92392,2.72934 -3.25546,2.08612 -2.34184,-3.77552 -5.36509,-7.88067 -4.09542,-12.58518 1.50061,-0.0734 3.0024,-0.12808 4.50541,-0.16409 1.05838,2.20236 2.02556,4.45038 2.81185,6.76687 -1.30888,0.52332 -2.61391,1.0557 -3.91507,1.59712 2.07524,0.57947 4.13491,1.2147 6.13917,2.01512 -0.56463,-3.95035 -1.63124,-7.80615 -3.33117,-11.41947 z"
       style="fill:#ffffff;fill-rule:nonzero;stroke:none" />
    <path
       inkscape:connector-curvature="0"
       id="path286"
       d="m 422.14201,572.0542 c 0.70129,0.69778 0.70129,0.69778 0,0 z"
       style="fill:none;stroke:#8f8f8f;stroke-width:0.125;stroke-linecap:butt;stroke-linejoin:miter;stroke-miterlimit:10" />
    <path
       inkscape:connector-curvature="0"
       id="path288"
       d="m 422.14201,572.0542 c 0.70129,0.69778 0.70129,0.69778 0,0 z"
       style="fill:#8f8f8f;fill-rule:nonzero;stroke:none" />
    <path
       inkscape:connector-curvature="0"
       id="path334"
       d="m 421.13773,575.89371 c 1.18097,-1.13434 3.56817,-0.4159 4.03717,1.1124 -0.32915,2.38333 -5.29327,1.20482 -4.03717,-1.1124 z"
       style="fill:none;stroke:#ffffff;stroke-width:0.125;stroke-linecap:butt;stroke-linejoin:miter;stroke-miterlimit:10" />
    <path
       inkscape:connector-curvature="0"
       id="path336"
       d="m 421.13773,575.89371 c 1.18097,-1.13434 3.56817,-0.4159 4.03717,1.1124 -0.32915,2.38333 -5.29327,1.20482 -4.03717,-1.1124 z"
       style="fill:#ffffff;fill-rule:nonzero;stroke:none" />
    <path
       inkscape:connector-curvature="0"
       id="path370"
       d="m 420.68819,579.31484 c 1.78762,0.0734 3.6627,-0.29634 5.38812,0.31708 2.52585,3.50039 6.76327,4.77953 10.09301,7.31613 -0.17119,1.59731 -0.34188,3.1959 -0.51207,4.79574 0.6889,-0.89193 1.37516,-1.78514 2.05879,-2.67961 -0.1705,4.21827 1.57929,8.07526 2.86375,11.99104 -3.96486,0.76542 -8.7359,3.49558 -12.39645,0.51007 -5.7675,-5.83754 -5.93048,-14.66198 -7.49515,-22.25045 z"
       style="fill:none;stroke:#ffffff;stroke-width:0.125;stroke-linecap:butt;stroke-linejoin:miter;stroke-miterlimit:10" />
    <path
       inkscape:connector-curvature="0"
       id="path372"
       d="m 420.68819,579.31484 c 1.78762,0.0734 3.6627,-0.29634 5.38812,0.31708 2.52585,3.50039 6.76327,4.77953 10.09301,7.31613 -0.17119,1.59731 -0.34188,3.1959 -0.51207,4.79574 0.6889,-0.89193 1.37516,-1.78514 2.05879,-2.67961 -0.1705,4.21827 1.57929,8.07526 2.86375,11.99104 -3.96486,0.76542 -8.7359,3.49558 -12.39645,0.51007 -5.7675,-5.83754 -5.93048,-14.66198 -7.49515,-22.25045 z"
       style="fill:#ffffff;fill-rule:nonzero;stroke:none" />
    <path
       inkscape:connector-curvature="0"
       id="path374"
       d="m 435.65338,581.72909 c 1.24302,-1.6456 4.60388,0.13842 3.07827,2.00228 -1.23476,1.72716 -4.52851,-0.13865 -3.07827,-2.00228 z"
       style="fill:none;stroke:#ffffff;stroke-width:0.125;stroke-linecap:butt;stroke-linejoin:miter;stroke-miterlimit:10" />
    <path
       inkscape:connector-curvature="0"
       id="path376"
       d="m 435.65338,581.72909 c 1.24302,-1.6456 4.60388,0.13842 3.07827,2.00228 -1.23476,1.72716 -4.52851,-0.13865 -3.07827,-2.00228 z"
       style="fill:#ffffff;fill-rule:nonzero;stroke:none" />
    <path
       inkscape:connector-curvature="0"
       id="path378"
       d="m 440.34887,585.43369 c 4.85634,-0.23098 8.34776,-5.46997 13.41019,-3.53567 1.71247,2.2943 3.20171,4.84133 5.76397,6.31459 -2.29897,5.14057 -5.96623,12.25818 -12.71645,11.08093 -4.43888,0.24933 -6.07046,-4.47094 -7.20978,-7.88304 -0.96008,-2.02562 0.18517,-4.03759 0.75207,-5.97681 z"
       style="fill:none;stroke:#ffffff;stroke-width:0.125;stroke-linecap:butt;stroke-linejoin:miter;stroke-miterlimit:10" />
    <path
       inkscape:connector-curvature="0"
       id="path380"
       d="m 440.34887,585.43369 c 4.85634,-0.23098 8.34776,-5.46997 13.41019,-3.53567 1.71247,2.2943 3.20171,4.84133 5.76397,6.31459 -2.29897,5.14057 -5.96623,12.25818 -12.71645,11.08093 -4.43888,0.24933 -6.07046,-4.47094 -7.20978,-7.88304 -0.96008,-2.02562 0.18517,-4.03759 0.75207,-5.97681 z"
       style="fill:#ffffff;fill-rule:nonzero;stroke:none" />
    <path
       inkscape:connector-curvature="0"
       id="path414"
       d="m 443.12338,601.02717 c 1.65184,1.33716 3.59212,2.2072 5.52692,3.05225 -0.24666,3.73102 -0.55506,7.45915 -0.95087,11.17916 -1.37734,0.45424 -2.75337,0.91069 -4.13519,1.34939 -0.80618,-5.14854 -1.40106,-10.40918 -0.44086,-15.5808 z"
       style="fill:none;stroke:#ffffff;stroke-width:0.125;stroke-linecap:butt;stroke-linejoin:miter;stroke-miterlimit:10" />
    <path
       inkscape:connector-curvature="0"
       id="path416"
       d="m 443.12338,601.02717 c 1.65184,1.33716 3.59212,2.2072 5.52692,3.05225 -0.24666,3.73102 -0.55506,7.45915 -0.95087,11.17916 -1.37734,0.45424 -2.75337,0.91069 -4.13519,1.34939 -0.80618,-5.14854 -1.40106,-10.40918 -0.44086,-15.5808 z"
       style="fill:#ffffff;fill-rule:nonzero;stroke:none" />
    <path
       inkscape:connector-curvature="0"
       id="path438"
       d="m 429.2613,605.7876 c 3.49642,2.11264 7.36708,0.46185 9.77446,-2.42334 -0.35954,4.53051 -0.0407,9.06881 0.23689,13.59472 -3.27189,-0.51134 -6.51329,-1.18696 -9.74447,-1.90285 -0.25998,-3.08359 -0.2821,-6.17828 -0.26688,-9.26853 z"
       style="fill:none;stroke:#ffffff;stroke-width:0.125;stroke-linecap:butt;stroke-linejoin:miter;stroke-miterlimit:10" />
    <path
       inkscape:connector-curvature="0"
       id="path440"
       d="m 429.2613,605.7876 c 3.49642,2.11264 7.36708,0.46185 9.77446,-2.42334 -0.35954,4.53051 -0.0407,9.06881 0.23689,13.59472 -3.27189,-0.51134 -6.51329,-1.18696 -9.74447,-1.90285 -0.25998,-3.08359 -0.2821,-6.17828 -0.26688,-9.26853 z"
       style="fill:#ffffff;fill-rule:nonzero;stroke:none" />
    <path
       inkscape:connector-curvature="0"
       id="path466"
       d="m 449.2333,611.12804 c 1.76342,0.20169 2.064,1.02397 0.90174,2.4668 -1.77908,-0.20538 -2.07966,-1.02765 -0.90174,-2.4668 z"
       style="fill:none;stroke:#616161;stroke-width:0.125;stroke-linecap:butt;stroke-linejoin:miter;stroke-miterlimit:10" />
    <path
       inkscape:connector-curvature="0"
       id="path468"
       d="m 449.2333,611.12804 c 1.76342,0.20169 2.064,1.02397 0.90174,2.4668 -1.77908,-0.20538 -2.07966,-1.02765 -0.90174,-2.4668 z"
       style="fill:#616161;fill-rule:nonzero;stroke:none" />
  </g>
</svg>
